<svg width="16" height="16" viewBox="0 0 16 16" fill="none" xmlns="http://www.w3.org/2000/svg">
<path d="M10.318 8.59332L11.328 14.2773C11.3393 14.3443 11.3299 14.413 11.301 14.4745C11.2722 14.5359 11.2253 14.5871 11.1666 14.6212C11.1079 14.6553 11.0402 14.6706 10.9725 14.6651C10.9048 14.6597 10.8405 14.6337 10.788 14.5907L8.40129 12.7993C8.28607 12.7132 8.14611 12.6667 8.00229 12.6667C7.85847 12.6667 7.71851 12.7132 7.60329 12.7993L5.21262 14.59C5.16017 14.6329 5.09586 14.6589 5.02829 14.6644C4.96071 14.6698 4.89307 14.6545 4.8344 14.6206C4.77573 14.5866 4.72881 14.5355 4.6999 14.4742C4.671 14.4129 4.66148 14.3442 4.67262 14.2773L5.68196 8.59332" stroke="#364153" stroke-width="1.33333" stroke-linecap="round" stroke-linejoin="round"/>
<path d="M8 9.33331C10.2091 9.33331 12 7.54245 12 5.33331C12 3.12417 10.2091 1.33331 8 1.33331C5.79086 1.33331 4 3.12417 4 5.33331C4 7.54245 5.79086 9.33331 8 9.33331Z" stroke="#364153" stroke-width="1.33333" stroke-linecap="round" stroke-linejoin="round"/>
</svg>
