<svg width="44" height="40" viewBox="0 0 44 40" fill="none" xmlns="http://www.w3.org/2000/svg">
<path d="M4 32C3.46957 32 2.96086 31.7893 2.58579 31.4142C2.21071 31.0391 2 30.5304 2 30V4C2 3.46957 2.21071 2.96086 2.58579 2.58579C2.96086 2.21071 3.46957 2 4 2H14C16.1217 2 18.1566 2.84285 19.6569 4.34315C21.1571 5.84344 22 7.87827 22 10C22 7.87827 22.8429 5.84344 24.3431 4.34315C25.8434 2.84285 27.8783 2 30 2H40C40.5304 2 41.0391 2.21071 41.4142 2.58579C41.7893 2.96086 42 3.46957 42 4V30C42 30.5304 41.7893 31.0391 41.4142 31.4142C41.0391 31.7893 40.5304 32 40 32H28C26.4087 32 24.8826 32.6321 23.7574 33.7574C22.6321 34.8826 22 36.4087 22 38C22 36.4087 21.3679 34.8826 20.2426 33.7574C19.1174 32.6321 17.5913 32 16 32H4Z" stroke="white" stroke-width="4" stroke-linecap="round" stroke-linejoin="round"/>
</svg>
