<svg width="17" height="17" viewBox="0 0 17 17" fill="none" xmlns="http://www.w3.org/2000/svg">
<path d="M13.1667 14.4896L11.6667 7.65626L14.5834 4.73959C15.8334 3.48959 16.25 1.82293 15.8334 0.989594C15 0.572927 13.3334 0.989594 12.0834 2.23959L9.16671 5.15626L2.33337 3.65626C1.91671 3.57293 1.58337 3.73959 1.41671 4.07293L1.16671 4.48959C1.00004 4.90626 1.08337 5.32293 1.41671 5.57293L5.83337 8.48959L4.16671 10.9896H1.66671L0.833374 11.8229L3.33337 13.4896L5.00004 15.9896L5.83337 15.1563V12.6563L8.33337 10.9896L11.25 15.4063C11.5 15.7396 11.9167 15.8229 12.3334 15.6563L12.75 15.4896C13.0834 15.2396 13.25 14.9063 13.1667 14.4896Z" stroke="#364153" stroke-width="1.66667" stroke-linecap="round" stroke-linejoin="round"/>
</svg>
