<svg width="15" height="16" viewBox="0 0 15 16" fill="none" xmlns="http://www.w3.org/2000/svg">
<path d="M9.35418 13.2617V12.0924C9.35418 11.4722 9.1078 10.8774 8.66924 10.4388C8.23068 10.0003 7.63586 9.75391 7.01565 9.75391H3.50784C2.88763 9.75391 2.29281 10.0003 1.85425 10.4388C1.41569 10.8774 1.16931 11.4722 1.16931 12.0924V13.2617" stroke="#364153" stroke-width="1.16927" stroke-linecap="round" stroke-linejoin="round"/>
<path d="M5.26175 7.41536C6.55329 7.41536 7.60028 6.36837 7.60028 5.07683C7.60028 3.78529 6.55329 2.7383 5.26175 2.7383C3.97021 2.7383 2.92322 3.78529 2.92322 5.07683C2.92322 6.36837 3.97021 7.41536 5.26175 7.41536Z" stroke="#364153" stroke-width="1.16927" stroke-linecap="round" stroke-linejoin="round"/>
<path d="M12.8619 13.2617V12.0924C12.8615 11.5743 12.6891 11.0709 12.3716 10.6614C12.0542 10.2519 11.6097 9.95943 11.108 9.8299" stroke="#364153" stroke-width="1.16927" stroke-linecap="round" stroke-linejoin="round"/>
<path d="M9.35413 2.8143C9.85715 2.9431 10.303 3.23565 10.6214 3.64583C10.9398 4.05601 11.1126 4.5605 11.1126 5.07975C11.1126 5.59901 10.9398 6.10349 10.6214 6.51368C10.303 6.92386 9.85715 7.21641 9.35413 7.34521" stroke="#364153" stroke-width="1.16927" stroke-linecap="round" stroke-linejoin="round"/>
</svg>
