<svg width="16" height="16" viewBox="0 0 16 16" fill="none" xmlns="http://www.w3.org/2000/svg">
<path d="M9.99996 1.33334H3.99996C3.64634 1.33334 3.3072 1.47382 3.05715 1.72387C2.8071 1.97392 2.66663 2.31305 2.66663 2.66668V13.3333C2.66663 13.687 2.8071 14.0261 3.05715 14.2762C3.3072 14.5262 3.64634 14.6667 3.99996 14.6667H12C12.3536 14.6667 12.6927 14.5262 12.9428 14.2762C13.1928 14.0261 13.3333 13.687 13.3333 13.3333V4.66668L9.99996 1.33334Z" stroke="#364153" stroke-width="1.33333" stroke-linecap="round" stroke-linejoin="round"/>
<path d="M9.33337 1.33334V4.00001C9.33337 4.35363 9.47385 4.69277 9.7239 4.94282C9.97395 5.19287 10.3131 5.33334 10.6667 5.33334H13.3334" stroke="#364153" stroke-width="1.33333" stroke-linecap="round" stroke-linejoin="round"/>
<path d="M6 9.99999L7.33333 11.3333L10 8.66666" stroke="#364153" stroke-width="1.33333" stroke-linecap="round" stroke-linejoin="round"/>
</svg>
