<svg width="15" height="16" viewBox="0 0 15 16" fill="none" xmlns="http://www.w3.org/2000/svg">
<path d="M6.41748 13.625C6.5272 13.815 6.68499 13.9728 6.87501 14.0825C7.06503 14.1922 7.28057 14.2499 7.49998 14.2499C7.71939 14.2499 7.93494 14.1922 8.12495 14.0825C8.31497 13.9728 8.47277 13.815 8.58248 13.625" stroke="#364153" stroke-width="1.25" stroke-linecap="round" stroke-linejoin="round"/>
<path d="M2.03878 10.0788C1.95713 10.1682 1.90325 10.2795 1.88369 10.3991C1.86413 10.5186 1.87973 10.6413 1.9286 10.7521C1.97747 10.863 2.05749 10.9572 2.15894 11.0234C2.26039 11.0896 2.37889 11.1249 2.50003 11.125H12.5C12.6212 11.125 12.7397 11.0899 12.8412 11.0238C12.9427 10.9577 13.0228 10.8636 13.0718 10.7528C13.1208 10.642 13.1366 10.5194 13.1172 10.3999C13.0978 10.2803 13.044 10.169 12.9625 10.0794C12.1313 9.2225 11.25 8.31188 11.25 5.5C11.25 4.50544 10.8549 3.55161 10.1517 2.84835C9.44842 2.14509 8.49459 1.75 7.50003 1.75C6.50547 1.75 5.55164 2.14509 4.84838 2.84835C4.14512 3.55161 3.75003 4.50544 3.75003 5.5C3.75003 8.31188 2.86816 9.2225 2.03878 10.0788Z" stroke="#364153" stroke-width="1.25" stroke-linecap="round" stroke-linejoin="round"/>
</svg>
