<svg width="10" height="16" viewBox="0 0 10 16" fill="none" xmlns="http://www.w3.org/2000/svg">
<path d="M6.22074 3.85286H3.73246C3.50342 3.85286 3.31775 4.03853 3.31775 4.26757V5.097C3.31775 5.32604 3.50342 5.51171 3.73246 5.51171H6.22074C6.44978 5.51171 6.63546 5.32604 6.63546 5.097V4.26757C6.63546 4.03853 6.44978 3.85286 6.22074 3.85286Z" stroke="#364153" stroke-width="0.829427" stroke-linecap="round" stroke-linejoin="round"/>
<path d="M6.63537 4.6823H7.4648C7.68478 4.6823 7.89575 4.76968 8.05129 4.92523C8.20684 5.08078 8.29423 5.29175 8.29423 5.51172V11.3177C8.29423 11.5377 8.20684 11.7487 8.05129 11.9042C7.89575 12.0598 7.68478 12.1471 7.4648 12.1471H2.48824C2.26826 12.1471 2.05729 12.0598 1.90175 11.9042C1.7462 11.7487 1.65881 11.5377 1.65881 11.3177V5.51172C1.65881 5.29175 1.7462 5.08078 1.90175 4.92523C2.05729 4.76968 2.26826 4.6823 2.48824 4.6823H3.31767" stroke="#364153" stroke-width="0.829427" stroke-linecap="round" stroke-linejoin="round"/>
<path d="M4.97656 7.58528H6.63542" stroke="#364153" stroke-width="0.829427" stroke-linecap="round" stroke-linejoin="round"/>
<path d="M4.97656 9.65886H6.63542" stroke="#364153" stroke-width="0.829427" stroke-linecap="round" stroke-linejoin="round"/>
<path d="M3.31775 7.58528H3.3219" stroke="#364153" stroke-width="0.829427" stroke-linecap="round" stroke-linejoin="round"/>
<path d="M3.31775 9.65886H3.3219" stroke="#364153" stroke-width="0.829427" stroke-linecap="round" stroke-linejoin="round"/>
</svg>
