<svg width="16" height="16" viewBox="0 0 16 16" fill="none" xmlns="http://www.w3.org/2000/svg">
<path d="M9.80003 4.20015C9.67787 4.32477 9.60945 4.49231 9.60945 4.66682C9.60945 4.84132 9.67787 5.00886 9.80003 5.13348L10.8667 6.20015C10.9913 6.3223 11.1589 6.39072 11.3334 6.39072C11.5079 6.39072 11.6754 6.3223 11.8 6.20015L14.3134 3.68682C14.6486 4.42761 14.7501 5.25297 14.6043 6.05291C14.4586 6.85285 14.0725 7.58938 13.4975 8.16434C12.9226 8.73929 12.1861 9.12537 11.3861 9.27112C10.5862 9.41687 9.76082 9.31537 9.02003 8.98015L4.41336 13.5868C4.14814 13.852 3.78843 14.001 3.41336 14.001C3.03829 14.001 2.67858 13.852 2.41336 13.5868C2.14814 13.3216 1.99915 12.9619 1.99915 12.5868C1.99915 12.2117 2.14814 11.852 2.41336 11.5868L7.02003 6.98015C6.6848 6.23936 6.5833 5.41399 6.72905 4.61405C6.87481 3.81411 7.26088 3.07759 7.83584 2.50263C8.4108 1.92767 9.14732 1.5416 9.94726 1.39584C10.7472 1.25009 11.5726 1.35159 12.3134 1.68682L9.80669 4.19348L9.80003 4.20015Z" stroke="#364153" stroke-width="1.33333" stroke-linecap="round" stroke-linejoin="round"/>
</svg>
