<svg width="15" height="16" viewBox="0 0 15 16" fill="none" xmlns="http://www.w3.org/2000/svg">
<path d="M9.58329 13.3906V12.1927C9.58329 11.5573 9.33088 10.9479 8.88157 10.4986C8.43226 10.0493 7.82287 9.79688 7.18746 9.79688H3.59371C2.95829 9.79688 2.34891 10.0493 1.8996 10.4986C1.45029 10.9479 1.19788 11.5573 1.19788 12.1927V13.3906" stroke="#364153" stroke-width="1.19792" stroke-linecap="round" stroke-linejoin="round"/>
<path d="M5.39058 7.40104C6.71377 7.40104 7.78642 6.32839 7.78642 5.00521C7.78642 3.68203 6.71377 2.60938 5.39058 2.60938C4.0674 2.60938 2.99475 3.68203 2.99475 5.00521C2.99475 6.32839 4.0674 7.40104 5.39058 7.40104Z" stroke="#364153" stroke-width="1.19792" stroke-linecap="round" stroke-linejoin="round"/>
<path d="M13.1771 13.3906V12.1927C13.1767 11.6619 13 11.1462 12.6748 10.7266C12.3496 10.3071 11.8942 10.0074 11.3802 9.87473" stroke="#364153" stroke-width="1.19792" stroke-linecap="round" stroke-linejoin="round"/>
<path d="M9.58337 2.68723C10.0987 2.81918 10.5555 3.1189 10.8817 3.53913C11.2079 3.95936 11.3849 4.47621 11.3849 5.00819C11.3849 5.54017 11.2079 6.05701 10.8817 6.47725C10.5555 6.89748 10.0987 7.1972 9.58337 7.32915" stroke="#364153" stroke-width="1.19792" stroke-linecap="round" stroke-linejoin="round"/>
</svg>
