<svg width="16" height="16" viewBox="0 0 16 16" fill="none" xmlns="http://www.w3.org/2000/svg">
<g clip-path="url(#clip0_38_5670)">
<path d="M5.33329 14.6666C5.70148 14.6666 5.99996 14.3682 5.99996 14C5.99996 13.6318 5.70148 13.3333 5.33329 13.3333C4.9651 13.3333 4.66663 13.6318 4.66663 14C4.66663 14.3682 4.9651 14.6666 5.33329 14.6666Z" stroke="#364153" stroke-width="1.33333" stroke-linecap="round" stroke-linejoin="round"/>
<path d="M12.6667 14.6666C13.0349 14.6666 13.3333 14.3682 13.3333 14C13.3333 13.6318 13.0349 13.3333 12.6667 13.3333C12.2985 13.3333 12 13.6318 12 14C12 14.3682 12.2985 14.6666 12.6667 14.6666Z" stroke="#364153" stroke-width="1.33333" stroke-linecap="round" stroke-linejoin="round"/>
<path d="M1.3667 1.36664H2.70003L4.47337 9.64664C4.53842 9.94988 4.70715 10.221 4.95051 10.4132C5.19387 10.6055 5.49664 10.7069 5.8067 10.7H12.3267C12.6301 10.6995 12.9244 10.5955 13.1607 10.4052C13.3971 10.2149 13.5615 9.94966 13.6267 9.6533L14.7267 4.69997H3.41337" stroke="#364153" stroke-width="1.33333" stroke-linecap="round" stroke-linejoin="round"/>
</g>
<defs>
<clipPath id="clip0_38_5670">
<rect width="16" height="16" fill="white"/>
</clipPath>
</defs>
</svg>
