<svg width="19" height="17" viewBox="0 0 19 17" fill="none" xmlns="http://www.w3.org/2000/svg">
<path d="M1.66671 13.3333C1.44569 13.3333 1.23373 13.2455 1.07745 13.0893C0.921171 12.933 0.833374 12.721 0.833374 12.5V1.66667C0.833374 1.44566 0.921171 1.23369 1.07745 1.07741C1.23373 0.921133 1.44569 0.833336 1.66671 0.833336H5.83337C6.71743 0.833336 7.56528 1.18453 8.1904 1.80965C8.81552 2.43477 9.16671 3.28261 9.16671 4.16667C9.16671 3.28261 9.5179 2.43477 10.143 1.80965C10.7681 1.18453 11.616 0.833336 12.5 0.833336H16.6667C16.8877 0.833336 17.0997 0.921133 17.256 1.07741C17.4122 1.23369 17.5 1.44566 17.5 1.66667V12.5C17.5 12.721 17.4122 12.933 17.256 13.0893C17.0997 13.2455 16.8877 13.3333 16.6667 13.3333H11.6667C11.0037 13.3333 10.3678 13.5967 9.89894 14.0656C9.4301 14.5344 9.16671 15.1703 9.16671 15.8333C9.16671 15.1703 8.90332 14.5344 8.43447 14.0656C7.96563 13.5967 7.32975 13.3333 6.66671 13.3333H1.66671Z" stroke="#364153" stroke-width="1.66667" stroke-linecap="round" stroke-linejoin="round"/>
</svg>
